<?xml version="1.0" encoding="UTF-8"?>
<svg version="1.1" xmlns="http://www.w3.org/2000/svg" width="24" height="24">
<path d="M0 0 C0.804375 -0.00128906 1.60875 -0.00257812 2.4375 -0.00390625 C3.283125 -0.00003906 4.12875 0.00382813 5 0.0078125 C6.2684375 0.00201172 6.2684375 0.00201172 7.5625 -0.00390625 C8.366875 -0.00261719 9.17125 -0.00132813 10 0 C10.7425 0.00112793 11.485 0.00225586 12.25 0.00341797 C14 0.1328125 14 0.1328125 15 1.1328125 C15.09981214 3.8101263 15.13879875 6.45585425 15.125 9.1328125 C15.13080078 10.25816406 15.13080078 10.25816406 15.13671875 11.40625 C15.12661053 17.00620197 15.12661053 17.00620197 14 18.1328125 C12.66956375 18.2311846 11.33406656 18.26359842 10 18.265625 C9.195625 18.26691406 8.39125 18.26820312 7.5625 18.26953125 C6.716875 18.26566406 5.87125 18.26179688 5 18.2578125 C4.154375 18.26167969 3.30875 18.26554687 2.4375 18.26953125 C1.633125 18.26824219 0.82875 18.26695313 0 18.265625 C-0.7425 18.26449707 -1.485 18.26336914 -2.25 18.26220703 C-4 18.1328125 -4 18.1328125 -5 17.1328125 C-5.09981214 14.4554987 -5.13879875 11.80977075 -5.125 9.1328125 C-5.12886719 8.38257813 -5.13273438 7.63234375 -5.13671875 6.859375 C-5.12435126 0.00778439 -5.12435126 0.00778439 0 0 Z M8 6.1328125 C8 8.7728125 8 11.4128125 8 14.1328125 C8.66 14.1328125 9.32 14.1328125 10 14.1328125 C10 11.4928125 10 8.8528125 10 6.1328125 C9.34 6.1328125 8.68 6.1328125 8 6.1328125 Z M0 8.1328125 C0 10.1128125 0 12.0928125 0 14.1328125 C0.66 14.1328125 1.32 14.1328125 2 14.1328125 C2 12.1528125 2 10.1728125 2 8.1328125 C1.34 8.1328125 0.68 8.1328125 0 8.1328125 Z M4 10.1328125 C4 11.4528125 4 12.7728125 4 14.1328125 C4.66 14.1328125 5.32 14.1328125 6 14.1328125 C6 12.8128125 6 11.4928125 6 10.1328125 C5.34 10.1328125 4.68 10.1328125 4 10.1328125 Z " fill="#FFFFFF" transform="translate(7,2.8671875)"/>
</svg>
