<?xml version="1.0" encoding="UTF-8"?>
<svg version="1.1" xmlns="http://www.w3.org/2000/svg" width="24" height="24">
<path d="M0 0 C0.94875 0.350625 1.8975 0.70125 2.875 1.0625 C4 6.8125 4 6.8125 2.875 9.0625 C2.215 9.0625 1.555 9.0625 0.875 9.0625 C0.89820312 9.76117188 0.92140625 10.45984375 0.9453125 11.1796875 C0.97238281 12.54480469 0.97238281 12.54480469 1 13.9375 C1.02320312 14.84242187 1.04640625 15.74734375 1.0703125 16.6796875 C0.875 19.0625 0.875 19.0625 -1.125 21.0625 C-3.99842061 21.26106972 -6.75361988 21.34078946 -9.625 21.3125 C-10.80255859 21.32410156 -10.80255859 21.32410156 -12.00390625 21.3359375 C-17.87169213 21.31580787 -17.87169213 21.31580787 -20.125 19.0625 C-20.390625 16.09375 -20.390625 16.09375 -20.375 12.5625 C-20.38015625 11.3971875 -20.3853125 10.231875 -20.390625 9.03125 C-20.125 6.0625 -20.125 6.0625 -18.125 4.0625 C-15.5234375 3.8671875 -15.5234375 3.8671875 -12.5 3.9375 C-10.99566406 3.96457031 -10.99566406 3.96457031 -9.4609375 3.9921875 C-8.69007812 4.01539063 -7.91921875 4.03859375 -7.125 4.0625 C-6.83625 3.423125 -6.5475 2.78375 -6.25 2.125 C-4.42772516 -1.2158372 -3.64294223 -1.09288267 0 0 Z M-16.125 7.0625 C-16.125 7.7225 -16.125 8.3825 -16.125 9.0625 C-12.825 9.0625 -9.525 9.0625 -6.125 9.0625 C-6.455 8.4025 -6.785 7.7425 -7.125 7.0625 C-10.095 7.0625 -13.065 7.0625 -16.125 7.0625 Z M-17.125 12.0625 C-17.125 12.3925 -17.125 12.7225 -17.125 13.0625 C-12.175 13.0625 -7.225 13.0625 -2.125 13.0625 C-2.125 12.7325 -2.125 12.4025 -2.125 12.0625 C-7.075 12.0625 -12.025 12.0625 -17.125 12.0625 Z M-16.125 16.0625 C-16.125 16.7225 -16.125 17.3825 -16.125 18.0625 C-11.835 18.0625 -7.545 18.0625 -3.125 18.0625 C-3.125 17.4025 -3.125 16.7425 -3.125 16.0625 C-7.415 16.0625 -11.705 16.0625 -16.125 16.0625 Z " fill="#FFFFFF" transform="translate(20.125,1.9375)"/>
</svg>
