<?xml version="1.0" encoding="UTF-8"?>
<svg version="1.1" xmlns="http://www.w3.org/2000/svg" width="24" height="24">
<path d="M0 0 C7.92 0 15.84 0 24 0 C24 2.31 24 4.62 24 7 C23.34 7 22.68 7 22 7 C22 8.32 22 9.64 22 11 C22.66 11 23.32 11 24 11 C24 13.31 24 15.62 24 18 C16.08 18 8.16 18 0 18 C0 15.69 0 13.38 0 11 C0.66 11 1.32 11 2 11 C2 9.68 2 8.36 2 7 C1.34 7 0.68 7 0 7 C0 4.69 0 2.38 0 0 Z M3 1 C2.34 2.32 1.68 3.64 1 5 C1.99 5.495 1.99 5.495 3 6 C3 7.98 3 9.96 3 12 C2.01 12.495 2.01 12.495 1 13 C1.66 14.32 2.32 15.64 3 17 C8.94 17 14.88 17 21 17 C21.66 15.68 22.32 14.36 23 13 C22.34 12.67 21.68 12.34 21 12 C21 10.02 21 8.04 21 6 C21.66 5.67 22.32 5.34 23 5 C22.34 3.68 21.68 2.36 21 1 C15.06 1 9.12 1 3 1 Z " fill="#E6E6E6" transform="translate(0,3)"/>
</svg>
