<?xml version="1.0" encoding="UTF-8"?>
<svg version="1.1" xmlns="http://www.w3.org/2000/svg" width="24" height="24">
<path d="M0 0 C0.66 0 1.32 0 2 0 C0.55754029 3.36573933 -1.083468 5.75010389 -4 8 C-6.5 7.75 -6.5 7.75 -9 7 C-12.76687864 7 -13.91190305 7.23537317 -17 9 C-15.84826645 6.53199953 -14.95216435 4.95216435 -13 3 C-10.625 3.375 -10.625 3.375 -8 4 C-3.9991076 4.4569098 -3.9991076 4.4569098 -1.875 2 C-0.946875 1.01 -0.946875 1.01 0 0 Z " fill="#E7E7E7" transform="translate(21,0)"/>
<path d="M0 0 C0.33 0 0.66 0 1 0 C1.33 7.26 1.66 14.52 2 22 C9.26 22.33 16.52 22.66 24 23 C24 23.33 24 23.66 24 24 C20.18751574 24.02887236 16.3750593 24.04675492 12.5625 24.0625 C11.47388672 24.07087891 10.38527344 24.07925781 9.26367188 24.08789062 C8.22919922 24.09111328 7.19472656 24.09433594 6.12890625 24.09765625 C5.17056885 24.10289307 4.21223145 24.10812988 3.22485352 24.11352539 C1 24 1 24 0 23 C-0.08713831 21.29227642 -0.10700007 19.58101351 -0.09765625 17.87109375 C-0.09443359 16.83662109 -0.09121094 15.80214844 -0.08789062 14.73632812 C-0.07951172 13.64771484 -0.07113281 12.55910156 -0.0625 11.4375 C-0.05798828 10.34501953 -0.05347656 9.25253906 -0.04882812 8.12695312 C-0.03699826 5.41791505 -0.02051543 2.70898401 0 0 Z " fill="#E6E6E6" transform="translate(0,0)"/>
<path d="M0 0 C0.33 0 0.66 0 1 0 C1 3.63 1 7.26 1 11 C0.67 11 0.34 11 0 11 C0 7.37 0 3.74 0 0 Z " fill="#E7E7E7" transform="translate(20,9)"/>
<path d="M0 0 C0.33 0 0.66 0 1 0 C1 3.3 1 6.6 1 10 C0.67 10 0.34 10 0 10 C0 6.7 0 3.4 0 0 Z " fill="#E7E7E7" transform="translate(10,10)"/>
<path d="M0 0 C0.33 0 0.66 0 1 0 C1 2.64 1 5.28 1 8 C0.67 8 0.34 8 0 8 C0 5.36 0 2.72 0 0 Z " fill="#E7E7E7" transform="translate(5,12)"/>
<path d="M0 0 C0.33 0 0.66 0 1 0 C1 2.31 1 4.62 1 7 C0.67 7 0.34 7 0 7 C0 4.69 0 2.38 0 0 Z " fill="#E7E7E7" transform="translate(15,13)"/>
</svg>
