<?xml version="1.0" encoding="UTF-8"?>
<svg version="1.1" xmlns="http://www.w3.org/2000/svg" width="24" height="24">
<path d="M0 0 C5.28 0 10.56 0 16 0 C16 3.96 16 7.92 16 12 C15.67 12 15.34 12 15 12 C14.93941406 11.36191406 14.87882813 10.72382813 14.81640625 10.06640625 C14.73261719 9.24011719 14.64882812 8.41382813 14.5625 7.5625 C14.48128906 6.73878906 14.40007813 5.91507812 14.31640625 5.06640625 C14.21069185 3.01337975 14.21069185 3.01337975 13 2 C11.33570949 1.90176063 9.66718069 1.87026369 8 1.875 C7.0925 1.87242187 6.185 1.86984375 5.25 1.8671875 C3.03033389 1.74826221 3.03033389 1.74826221 2 3 C1.84344973 4.48638992 1.74933057 5.97949127 1.68359375 7.47265625 C1.64169922 8.37177734 1.59980469 9.27089844 1.55664062 10.19726562 C1.51732422 11.14279297 1.47800781 12.08832031 1.4375 13.0625 C1.39431641 14.01189453 1.35113281 14.96128906 1.30664062 15.93945312 C1.20020868 18.29278176 1.09956846 20.64637099 1 23 C6.28 23 11.56 23 17 23 C17 23.33 17 23.66 17 24 C11.39 24 5.78 24 0 24 C0 16.08 0 8.16 0 0 Z " fill="#E6E6E6" transform="translate(0,0)"/>
<path d="M0 0 C3 0.25 3 0.25 5 2.25 C5.375 5.125 5.375 5.125 5 8.25 C3 10.625 3 10.625 1 12.25 C-1.46800047 11.09826645 -3.04783565 10.20216435 -5 8.25 C-5.25 5.25 -5.25 5.25 -5 2.25 C-3 0.25 -3 0.25 0 0 Z M-2 2.25 C-2.33 3.9 -2.66 5.55 -3 7.25 C-1.02 8.24 -1.02 8.24 1 9.25 C1.66 8.59 2.32 7.93 3 7.25 C2.67958603 4.64719432 2.67958603 4.64719432 2 2.25 C0.68 2.25 -0.64 2.25 -2 2.25 Z " fill="#E7E7E7" transform="translate(19,11.75)"/>
<path d="M0 0 C1.32 0 2.64 0 4 0 C4 1.32 4 2.64 4 4 C2.68 4 1.36 4 0 4 C0 2.68 0 1.36 0 0 Z " fill="#E6E6E6" transform="translate(17,15)"/>
<path d="M0 0 C3 1 3 1 3 1 Z " fill="#E7E7E7" transform="translate(9,17)"/>
<path d="M0 0 C3 1 3 1 3 1 Z " fill="#E7E7E7" transform="translate(4,17)"/>
<path d="M0 0 C3 1 3 1 3 1 Z " fill="#E7E7E7" transform="translate(9,13)"/>
<path d="M0 0 C3 1 3 1 3 1 Z " fill="#E7E7E7" transform="translate(4,13)"/>
<path d="M0 0 C3 1 3 1 3 1 Z " fill="#E7E7E7" transform="translate(9,9)"/>
<path d="M0 0 C3 1 3 1 3 1 Z " fill="#E7E7E7" transform="translate(4,9)"/>
<path d="M0 0 C3 1 3 1 3 1 Z " fill="#E7E7E7" transform="translate(9,5)"/>
<path d="M0 0 C3 1 3 1 3 1 Z " fill="#E7E7E7" transform="translate(4,5)"/>
</svg>
