<?xml version="1.0" encoding="UTF-8"?>
<svg version="1.1" xmlns="http://www.w3.org/2000/svg" width="24" height="24">
<path d="M0 0 C1.8871875 -0.00386719 1.8871875 -0.00386719 3.8125 -0.0078125 C7 0.125 7 0.125 9 1.125 C9 8.055 9 14.985 9 22.125 C3.06 22.125 -2.88 22.125 -9 22.125 C-9 15.195 -9 8.265 -9 1.125 C-6.02760209 -0.36119895 -3.30380422 -0.00677009 0 0 Z M-7 4.125 C-7 9.405 -7 14.685 -7 20.125 C-2.38 20.125 2.24 20.125 7 20.125 C7 14.845 7 9.565 7 4.125 C-0.12511876 2.64271536 -0.12511876 2.64271536 -7 4.125 Z " fill="#FFFFFF" transform="translate(12,0.875)"/>
<path d="M0 0 C3.63 0 7.26 0 11 0 C11 0.66 11 1.32 11 2 C7.37 2 3.74 2 0 2 C0 1.34 0 0.68 0 0 Z " fill="#FFFFFF" transform="translate(6,17)"/>
<path d="M0 0 C3.3 0 6.6 0 10 0 C10 0.66 10 1.32 10 2 C6.7 2 3.4 2 0 2 C0 1.34 0 0.68 0 0 Z " fill="#FFFFFF" transform="translate(6,14)"/>
<path d="M0 0 C3.3 0 6.6 0 10 0 C10 0.66 10 1.32 10 2 C6.7 2 3.4 2 0 2 C0 1.34 0 0.68 0 0 Z " fill="#FFFFFF" transform="translate(6,7)"/>
<path d="M0 0 C3.96 0 7.92 0 12 0 C12 0.33 12 0.66 12 1 C8.04 1 4.08 1 0 1 C0 0.67 0 0.34 0 0 Z " fill="#FFFFFF" transform="translate(6,11)"/>
</svg>
