<?xml version="1.0" encoding="UTF-8"?>
<svg version="1.1" xmlns="http://www.w3.org/2000/svg" width="24" height="24">
<path d="M0 0 C3.12578143 1.6720747 5.39281175 3.7856235 7 7 C7.51512617 11.09157355 7.94367269 15.23589546 5.953125 18.95703125 C3.55501226 21.85592636 1.60351712 23.79811835 -2.171875 24.2734375 C-9.98876369 24.58137554 -9.98876369 24.58137554 -13.5625 21.625 C-17.3057723 17.59378368 -17.39037018 14.90519941 -17.359375 9.55078125 C-16.78039966 5.44131496 -15.00085071 3.78650423 -12 1 C-8.27533151 -0.86233425 -4.05504687 -0.57130829 0 0 Z M-14 6 C-15.59387042 9.18774083 -15.52663137 12.53927959 -15 16 C-13.16658535 18.50520579 -13.16658535 18.50520579 -11 20 C-11 18.68 -11 17.36 -11 16 C-7.04 16 -3.08 16 1 16 C1.33 17.32 1.66 18.64 2 20 C4.66044076 17.33955924 5.012761 15.88515098 5.4375 12.0625 C5.29259728 7.97471813 3.96315444 5.87600284 1 3 C-4.71872108 0.14063946 -9.77770087 1.64975241 -14 6 Z M-8 17 C-8.66 18.32 -9.32 19.64 -10 21 C-9.01732141 22.20561184 -9.01732141 22.20561184 -7.15234375 22.09765625 C-5.1015625 22.06510417 -3.05078125 22.03255208 -1 22 C-1 20.68 -1 19.36 -1 18 C-2.12534105 16.64381501 -2.12534105 16.64381501 -5.0625 16.9375 C-6.031875 16.958125 -7.00125 16.97875 -8 17 Z " fill="#E6E6E6" transform="translate(17,0)"/>
<path d="M0 0 C3 0.125 3 0.125 4 1.125 C4.125 4.125 4.125 4.125 4 7.125 C3 8.125 3 8.125 0 8.25 C-3 8.125 -3 8.125 -4 7.125 C-4.125 4.125 -4.125 4.125 -4 1.125 C-3 0.125 -3 0.125 0 0 Z M-2 2.125 C-2 3.445 -2 4.765 -2 6.125 C-0.68 6.125 0.64 6.125 2 6.125 C2 4.805 2 3.485 2 2.125 C0.68 2.125 -0.64 2.125 -2 2.125 Z " fill="#E7E7E7" transform="translate(12,5.875)"/>
</svg>
