<?xml version="1.0" encoding="UTF-8"?>
<svg version="1.1" xmlns="http://www.w3.org/2000/svg" width="24" height="24">
<path d="M0 0 C1.98 0 3.96 0 6 0 C6 0.99 6 1.98 6 3 C6.78375 2.79375 7.5675 2.5875 8.375 2.375 C9.674375 2.189375 9.674375 2.189375 11 2 C11.66 2.66 12.32 3.32 13 4 C12.625 6.625 12.625 6.625 12 9 C12.99 9 13.98 9 15 9 C15 10.98 15 12.96 15 15 C14.01 15 13.02 15 12 15 C12.20625 15.78375 12.4125 16.5675 12.625 17.375 C12.74875 18.24125 12.8725 19.1075 13 20 C12.34 20.66 11.68 21.32 11 22 C8.375 21.625 8.375 21.625 6 21 C6 21.99 6 22.98 6 24 C4.02 24 2.04 24 0 24 C0 23.01 0 22.02 0 21 C-0.78375 21.20625 -1.5675 21.4125 -2.375 21.625 C-3.24125 21.74875 -4.1075 21.8725 -5 22 C-5.66 21.34 -6.32 20.68 -7 20 C-6.625 17.375 -6.625 17.375 -6 15 C-6.99 15 -7.98 15 -9 15 C-9 13.02 -9 11.04 -9 9 C-8.01 9 -7.02 9 -6 9 C-6.309375 7.824375 -6.309375 7.824375 -6.625 6.625 C-6.74875 5.75875 -6.8725 4.8925 -7 4 C-6.34 3.34 -5.68 2.68 -5 2 C-2.375 2.375 -2.375 2.375 0 3 C0 2.01 0 1.02 0 0 Z M2 1 C1.67 1.99 1.34 2.98 1 4 C-0.65 4 -2.3 4 -4 4 C-5.2981424 6.2236068 -5.2981424 6.2236068 -5 10 C-5.99 10.33 -6.98 10.66 -8 11 C-8 11.66 -8 12.32 -8 13 C-7.01 13.33 -6.02 13.66 -5 14 C-5 15.65 -5 17.3 -5 19 C-2.7763932 20.2981424 -2.7763932 20.2981424 1 20 C1.33 20.99 1.66 21.98 2 23 C2.66 23 3.32 23 4 23 C4.33 22.01 4.66 21.02 5 20 C6.65 20 8.3 20 10 20 C11.2981424 17.7763932 11.2981424 17.7763932 11 14 C11.99 13.67 12.98 13.34 14 13 C14 12.34 14 11.68 14 11 C13.01 10.67 12.02 10.34 11 10 C11 8.35 11 6.7 11 5 C8.7763932 3.7018576 8.7763932 3.7018576 5 4 C4.67 3.01 4.34 2.02 4 1 C3.34 1 2.68 1 2 1 Z " fill="#FFFFFF" transform="translate(9,0)"/>
<path d="M0 0 C3 0.25 3 0.25 5 2.25 C5.25 5.25 5.25 5.25 5 8.25 C3 10.25 3 10.25 0 10.5 C-3 10.25 -3 10.25 -5 8.25 C-5.25 5.25 -5.25 5.25 -5 2.25 C-3 0.25 -3 0.25 0 0 Z M-2 2.25 C-2.33 3.9 -2.66 5.55 -3 7.25 C-0.525 7.745 -0.525 7.745 2 8.25 C2.33 6.6 2.66 4.95 3 3.25 C1.35 2.92 -0.3 2.59 -2 2.25 Z " fill="#FFFFFF" transform="translate(12,6.75)"/>
</svg>
