<?xml version="1.0" encoding="UTF-8"?>
<svg version="1.1" xmlns="http://www.w3.org/2000/svg" width="24" height="24">
<path d="M0 0 C0.98484375 -0.00128906 1.9696875 -0.00257812 2.984375 -0.00390625 C4.02078125 -0.00003906 5.0571875 0.00382812 6.125 0.0078125 C7.67960938 0.00201172 7.67960938 0.00201172 9.265625 -0.00390625 C10.25046875 -0.00261719 11.2353125 -0.00132813 12.25 0 C13.16007812 0.00112793 14.07015625 0.00225586 15.0078125 0.00341797 C17.125 0.1328125 17.125 0.1328125 18.125 1.1328125 C18.22380797 2.60933914 18.25579245 4.09048486 18.2578125 5.5703125 C18.25974609 6.91222656 18.25974609 6.91222656 18.26171875 8.28125 C18.25785156 9.22226563 18.25398438 10.16328125 18.25 11.1328125 C18.25580078 12.54433594 18.25580078 12.54433594 18.26171875 13.984375 C18.26042969 14.87898437 18.25914063 15.77359375 18.2578125 16.6953125 C18.25668457 17.52160156 18.25555664 18.34789063 18.25439453 19.19921875 C18.125 21.1328125 18.125 21.1328125 17.125 22.1328125 C15.50242456 22.2319782 13.87560169 22.26361027 12.25 22.265625 C11.26515625 22.26691406 10.2803125 22.26820312 9.265625 22.26953125 C8.22921875 22.26566406 7.1928125 22.26179688 6.125 22.2578125 C4.57039062 22.26361328 4.57039062 22.26361328 2.984375 22.26953125 C1.99953125 22.26824219 1.0146875 22.26695313 0 22.265625 C-0.91007813 22.26449707 -1.82015625 22.26336914 -2.7578125 22.26220703 C-4.875 22.1328125 -4.875 22.1328125 -5.875 21.1328125 C-5.97380797 19.65628586 -6.00579245 18.17514014 -6.0078125 16.6953125 C-6.00910156 15.80070312 -6.01039063 14.90609375 -6.01171875 13.984375 C-6.00591797 12.57285156 -6.00591797 12.57285156 -6 11.1328125 C-6.00386719 10.19179687 -6.00773438 9.25078125 -6.01171875 8.28125 C-6.01042969 7.38664063 -6.00914062 6.49203125 -6.0078125 5.5703125 C-6.00612061 4.33087891 -6.00612061 4.33087891 -6.00439453 3.06640625 C-5.74484266 -0.81218018 -3.323887 0.00411955 0 0 Z M-3.875 2.1328125 C-4.94927471 5.35563663 -5.0082963 7.74792403 -5 11.1328125 C-5.00257813 12.1846875 -5.00515625 13.2365625 -5.0078125 14.3203125 C-4.99853635 17.21408128 -4.99853635 17.21408128 -3.875 20.1328125 C-0.37404689 21.29979687 2.4372232 21.26549537 6.125 21.2578125 C7.3625 21.26039062 8.6 21.26296875 9.875 21.265625 C13.13730773 21.28272552 13.13730773 21.28272552 16.125 20.1328125 C17.19927471 16.90998837 17.2582963 14.51770097 17.25 11.1328125 C17.25257812 10.0809375 17.25515625 9.0290625 17.2578125 7.9453125 C17.24853635 5.05154372 17.24853635 5.05154372 16.125 2.1328125 C12.62404689 0.96582813 9.8127768 1.00012963 6.125 1.0078125 C4.8875 1.00523438 3.65 1.00265625 2.375 1 C-0.88730773 0.98289948 -0.88730773 0.98289948 -3.875 2.1328125 Z " fill="#E5E5E5" transform="translate(5.875,0.8671875)"/>
<path d="M0 0 C3.63 0 7.26 0 11 0 C11 0.66 11 1.32 11 2 C7.37 2 3.74 2 0 2 C0 1.34 0 0.68 0 0 Z " fill="#E6E6E6" transform="translate(9,11)"/>
<path d="M0 0 C3.63 0 7.26 0 11 0 C11 0.33 11 0.66 11 1 C7.37 1 3.74 1 0 1 C0 0.67 0 0.34 0 0 Z " fill="#E6E6E6" transform="translate(9,17)"/>
<path d="M0 0 C3.63 0 7.26 0 11 0 C11 0.33 11 0.66 11 1 C7.37 1 3.74 1 0 1 C0 0.67 0 0.34 0 0 Z " fill="#E6E6E6" transform="translate(9,6)"/>
<path d="M0 0 C0.66 0 1.32 0 2 0 C2 0.99 2 1.98 2 3 C1.34 3 0.68 3 0 3 C0 2.01 0 1.02 0 0 Z " fill="#E6E6E6" transform="translate(4,16)"/>
<path d="M0 0 C0.66 0 1.32 0 2 0 C2 0.99 2 1.98 2 3 C1.34 3 0.68 3 0 3 C0 2.01 0 1.02 0 0 Z " fill="#E6E6E6" transform="translate(4,5)"/>
<path d="M0 0 C0.66 0 1.32 0 2 0 C2 0.66 2 1.32 2 2 C1.34 2 0.68 2 0 2 C0 1.34 0 0.68 0 0 Z " fill="#E7E7E7" transform="translate(4,11)"/>
</svg>
