<?xml version="1.0" encoding="UTF-8"?>
<svg version="1.1" xmlns="http://www.w3.org/2000/svg" width="64" height="64">
<path d="M0 0 C4.84622348 2.42846077 8.08410658 6.33978311 9.83203125 11.38671875 C10.22244622 15.75636326 10.13200663 20.01374433 9.83203125 24.38671875 C10.63640625 24.53109375 11.44078125 24.67546875 12.26953125 24.82421875 C14.83203125 25.38671875 14.83203125 25.38671875 15.83203125 26.38671875 C15.93298689 29.04128068 15.97174123 31.66927051 15.96484375 34.32421875 C15.96580048 35.11948975 15.9667572 35.91476074 15.96774292 36.73413086 C15.96842468 38.41878335 15.96657068 40.10343846 15.96240234 41.78808594 C15.957054 44.37571072 15.96234744 46.96316191 15.96875 49.55078125 C15.96808922 51.18359414 15.96680805 52.81640691 15.96484375 54.44921875 C15.96686798 55.22837646 15.96889221 56.00753418 15.97097778 56.81030273 C15.9469823 62.2717677 15.9469823 62.2717677 14.83203125 63.38671875 C13.39462772 63.48485862 11.95246798 63.51470155 10.51171875 63.51611328 C9.59406738 63.51926544 8.67641602 63.5224176 7.73095703 63.52566528 C6.73306152 63.52364105 5.73516602 63.52161682 4.70703125 63.51953125 C3.6897998 63.52048798 2.67256836 63.5214447 1.62451172 63.52243042 C-0.53092511 63.52311236 -2.68636397 63.5212571 -4.84179688 63.51708984 C-8.15369246 63.5117418 -11.46545242 63.51703438 -14.77734375 63.5234375 C-16.86588572 63.52277672 -18.9544276 63.52149556 -21.04296875 63.51953125 C-22.53981201 63.5225676 -22.53981201 63.5225676 -24.06689453 63.52566528 C-24.9845459 63.52251312 -25.90219727 63.51936096 -26.84765625 63.51611328 C-27.65960449 63.51531769 -28.47155273 63.51452209 -29.30810547 63.51370239 C-31.16796875 63.38671875 -31.16796875 63.38671875 -32.16796875 62.38671875 C-32.28133501 59.74385601 -32.33214636 57.12810419 -32.3359375 54.484375 C-32.3392659 53.69147568 -32.3425943 52.89857635 -32.34602356 52.08164978 C-32.35109601 50.40120017 -32.35343179 48.72074046 -32.35327148 47.0402832 C-32.35545661 44.46353616 -32.37360484 41.88721799 -32.39257812 39.31054688 C-32.3955122 37.68099105 -32.3974969 36.05143319 -32.3984375 34.421875 C-32.40562302 33.64787857 -32.41280853 32.87388214 -32.42021179 32.07643127 C-32.39679128 26.61554128 -32.39679128 26.61554128 -30.16796875 24.38671875 C-28.84796875 24.38671875 -27.52796875 24.38671875 -26.16796875 24.38671875 C-26.214375 23.52949219 -26.26078125 22.67226563 -26.30859375 21.7890625 C-26.532574 14.69368815 -26.62337972 10.04629485 -22.16796875 4.38671875 C-15.99669127 -1.33300184 -8.08501172 -2.28711142 0 0 Z M-21.54296875 8.88671875 C-23.92080688 14.00821626 -23.49164153 18.830336 -23.16796875 24.38671875 C-22.17796875 24.38671875 -21.18796875 24.38671875 -20.16796875 24.38671875 C-20.1421875 23.57847656 -20.11640625 22.77023438 -20.08984375 21.9375 C-19.62262661 13.13470425 -19.62262661 13.13470425 -17.23046875 9.19921875 C-13.49760009 5.91881902 -10.47445414 6.05890816 -5.65234375 6.09375 C-2.19598041 6.50134002 -0.48133006 7.84948377 1.83203125 10.38671875 C3.18294653 13.0885493 3.17061183 15.50480081 3.39453125 18.51171875 C3.52021484 20.15527344 3.52021484 20.15527344 3.6484375 21.83203125 C3.70902344 22.67507812 3.76960938 23.518125 3.83203125 24.38671875 C4.82203125 24.38671875 5.81203125 24.38671875 6.83203125 24.38671875 C7.37641733 15.41955406 7.37641733 15.41955406 3.83203125 7.38671875 C-1.0927019 2.94244737 -4.12191558 2.02499039 -10.62890625 2.109375 C-15.62779227 2.65540717 -18.21292162 5.38140599 -21.54296875 8.88671875 Z M-15.10546875 10.76171875 C-18.20854182 14.9802756 -17.50764851 19.35945824 -17.16796875 24.38671875 C-11.22796875 24.38671875 -5.28796875 24.38671875 0.83203125 24.38671875 C1.4032891 17.49571747 1.4032891 17.49571747 -1.04296875 11.32421875 C-3.76223278 8.84488978 -4.78087539 8.43784429 -8.48046875 7.94921875 C-12.31189734 8.07178267 -12.31189734 8.07178267 -15.10546875 10.76171875 Z M-29.16796875 28.38671875 C-29.25635523 30.76212926 -29.28334398 33.10905455 -29.265625 35.484375 C-29.26312744 36.78125244 -29.26062988 38.07812988 -29.25805664 39.41430664 C-29.24895264 41.07582764 -29.23984863 42.73734863 -29.23046875 44.44921875 C-29.20984375 49.70859375 -29.18921875 54.96796875 -29.16796875 60.38671875 C-15.30796875 60.38671875 -1.44796875 60.38671875 12.83203125 60.38671875 C12.86296875 52.49765625 12.86296875 52.49765625 12.89453125 44.44921875 C12.90363525 42.78769775 12.91273926 41.12617676 12.92211914 39.41430664 C12.9246167 38.1174292 12.92711426 36.82055176 12.9296875 35.484375 C12.93480347 34.79855347 12.93991943 34.11273193 12.94519043 33.40612793 C12.94550179 31.73256644 12.89425962 30.05912295 12.83203125 28.38671875 C10.93579923 26.49048673 8.16832766 27.25774249 5.64575195 27.24777222 C4.77909912 27.24979645 3.91244629 27.25182068 3.01953125 27.25390625 C2.13547607 27.25294952 1.2514209 27.2519928 0.34057617 27.25100708 C-1.53239004 27.25032524 -3.40535861 27.25217982 -5.27832031 27.25634766 C-8.15565263 27.26169586 -11.03282883 27.25640282 -13.91015625 27.25 C-15.72526076 27.25066078 -17.54036518 27.25194194 -19.35546875 27.25390625 C-20.655448 27.2508699 -20.655448 27.2508699 -21.98168945 27.24777222 C-25.88800094 26.87411461 -25.88800094 26.87411461 -29.16796875 28.38671875 Z " fill="#FFFFFF" transform="translate(40.16796875,0.61328125)"/>
<path d="M0 0 C1.875 1.125 1.875 1.125 3 3 C3.28600189 6.43202271 3.09190042 8.72429875 2 12 C1.96079185 13.99961564 1.95556653 16.00049364 2 18 C-1.3 18 -4.6 18 -8 18 C-7.96744792 15.94921875 -7.93489583 13.8984375 -7.90234375 11.84765625 C-7.79438816 9.98267859 -7.79438816 9.98267859 -9 9 C-9.4556962 3.75949367 -9.4556962 3.75949367 -7.875 1.125 C-5.11909116 -0.52854531 -3.14924548 -0.39365568 0 0 Z M-4 3 C-4.66 4.32 -5.32 5.64 -6 7 C-5.67 7.33 -5.34 7.66 -5 8 C-4.95907063 10.33297433 -4.95758277 12.66705225 -5 15 C-3.68 15 -2.36 15 -1 15 C-1 13.9275 -1 12.855 -1 11.75 C-1 9.16666667 -1 6.58333333 -1 4 C-1.99 3.67 -2.98 3.34 -4 3 Z " fill="#FFFFFF" transform="translate(35,36)"/>
</svg>
